<svg width="18" height="18" viewBox="0 0 18 18" fill="none" xmlns="http://www.w3.org/2000/svg">
<path d="M3.49454 10.016L8.20547 14.8711C8.40938 15.082 8.68712 15.1875 8.99297 15.1875H9.00704C9.3129 15.1875 9.59063 15.082 9.79454 14.8711L14.5055 10.016C14.9449 9.59414 14.9449 8.91563 14.5055 8.49727C14.066 8.07891 13.3559 8.07891 12.9164 8.49727L10.125 11.4152V3.8918C10.125 3.29766 9.62227 2.81602 9.00001 2.81602C8.36719 2.81602 7.87501 3.29766 7.87501 3.8918V11.4152L5.0836 8.49727C4.64415 8.07891 3.93399 8.07891 3.49454 8.49727C3.05508 8.91563 3.05508 9.59414 3.49454 10.016Z" fill="#4F6152"/>
</svg>
