<svg width="25" height="25" viewBox="0 0 25 25" fill="none" xmlns="http://www.w3.org/2000/svg">
<path d="M10.9375 21.875H6.24999C5.69746 21.875 5.16755 21.6555 4.77685 21.2648C4.38615 20.8741 4.16666 20.3442 4.16666 19.7917V7.29167C4.16666 6.73913 4.38615 6.20923 4.77685 5.81853C5.16755 5.42783 5.69746 5.20834 6.24999 5.20834H18.75C19.3025 5.20834 19.8324 5.42783 20.2231 5.81853C20.6138 6.20923 20.8333 6.73913 20.8333 7.29167V10.4167" stroke="black" stroke-width="1.5" stroke-linecap="round" stroke-linejoin="round"/>
<path d="M16.6667 3.125V7.29167" stroke="black" stroke-width="1.5" stroke-linecap="round" stroke-linejoin="round"/>
<path d="M8.33334 3.125V7.29167" stroke="black" stroke-width="1.5" stroke-linecap="round" stroke-linejoin="round"/>
<path d="M4.16666 11.4583H14.5833" stroke="black" stroke-width="1.5" stroke-linecap="round" stroke-linejoin="round"/>
<path d="M14.5833 18.75C14.5833 19.8551 15.0223 20.9149 15.8037 21.6963C16.5851 22.4777 17.6449 22.9167 18.75 22.9167C19.8551 22.9167 20.9149 22.4777 21.6963 21.6963C22.4777 20.9149 22.9167 19.8551 22.9167 18.75C22.9167 17.6449 22.4777 16.5851 21.6963 15.8037C20.9149 15.0223 19.8551 14.5833 18.75 14.5833C17.6449 14.5833 16.5851 15.0223 15.8037 15.8037C15.0223 16.5851 14.5833 17.6449 14.5833 18.75Z" stroke="black" stroke-width="1.5" stroke-linecap="round" stroke-linejoin="round"/>
<path d="M18.75 17.1875V18.75L19.2708 19.2708" stroke="black" stroke-width="1.5" stroke-linecap="round" stroke-linejoin="round"/>
</svg>
