<svg width="28" height="28" viewBox="0 0 28 28" fill="none" xmlns="http://www.w3.org/2000/svg">
<path fill-rule="evenodd" clip-rule="evenodd" d="M5.22669 1.86666L5.13274 1.8666C4.7063 1.8662 4.3387 1.86585 4.01304 1.94403C2.98923 2.18982 2.18985 2.9892 1.94406 4.01301C1.86588 4.33867 1.86623 4.70627 1.86663 5.13271L1.86669 5.22666V9.70666L1.86663 9.80061C1.86623 10.227 1.86588 10.5947 1.94406 10.9203C2.18985 11.9441 2.98923 12.7435 4.01304 12.9893C4.3387 13.0675 4.7063 13.0671 5.13274 13.0667L5.22669 13.0667H9.70669L9.80064 13.0667C10.2271 13.0671 10.5947 13.0675 10.9203 12.9893C11.9442 12.7435 12.7435 11.9441 12.9893 10.9203C13.0675 10.5947 13.0672 10.227 13.0667 9.80061L13.0667 9.70666V5.22666L13.0667 5.13271C13.0672 4.70627 13.0675 4.33867 12.9893 4.01301C12.7435 2.9892 11.9442 2.18982 10.9203 1.94403C10.5947 1.86585 10.2271 1.8662 9.80064 1.8666L9.70669 1.86666H5.22669ZM4.44881 3.75912C4.52915 3.73982 4.65217 3.73333 5.22669 3.73333H9.70669C10.2812 3.73333 10.4042 3.73982 10.4846 3.75912C10.8259 3.84105 11.0923 4.1075 11.1742 4.44878C11.1935 4.52912 11.2 4.65214 11.2 5.22666V9.70666C11.2 10.2812 11.1935 10.4042 11.1742 10.4845C11.0923 10.8258 10.8259 11.0923 10.4846 11.1742C10.4042 11.1935 10.2812 11.2 9.70669 11.2H5.22669C4.65217 11.2 4.52915 11.1935 4.44881 11.1742C4.10753 11.0923 3.84108 10.8258 3.75915 10.4845C3.73985 10.4042 3.73336 10.2812 3.73336 9.70666V5.22666C3.73336 4.65214 3.73985 4.52912 3.75915 4.44878C3.84108 4.1075 4.10753 3.84105 4.44881 3.75912ZM18.2934 1.86666L18.1994 1.8666C17.773 1.8662 17.4054 1.86585 17.0797 1.94403C16.0559 2.18982 15.2565 2.9892 15.0107 4.01301C14.9325 4.33867 14.9329 4.70627 14.9333 5.13271L14.9334 5.22666V9.70666L14.9333 9.80061C14.9329 10.227 14.9325 10.5947 15.0107 10.9203C15.2565 11.9441 16.0559 12.7435 17.0797 12.9893C17.4054 13.0675 17.773 13.0671 18.1994 13.0667L18.2934 13.0667H22.7734L22.8673 13.0667C23.2938 13.0671 23.6613 13.0675 23.9871 12.9893C25.0107 12.7435 25.8102 11.9441 26.0561 10.9203C26.1341 10.5947 26.1339 10.227 26.1334 9.80061V9.70666V5.22666V5.13271C26.1339 4.70627 26.1341 4.33867 26.0561 4.01301C25.8102 2.9892 25.0107 2.18982 23.9871 1.94403C23.6613 1.86585 23.2938 1.8662 22.8673 1.8666L22.7734 1.86666H18.2934ZM17.5155 3.75912C17.5958 3.73982 17.7188 3.73333 18.2934 3.73333H22.7734C23.3479 3.73333 23.4709 3.73982 23.5512 3.75912C23.8924 3.84105 24.159 4.1075 24.2409 4.44878C24.2602 4.52912 24.2667 4.65214 24.2667 5.22666V9.70666C24.2667 10.2812 24.2602 10.4042 24.2409 10.4845C24.159 10.8258 23.8924 11.0923 23.5512 11.1742C23.4709 11.1935 23.3479 11.2 22.7734 11.2H18.2934C17.7188 11.2 17.5958 11.1935 17.5155 11.1742C17.1742 11.0923 16.9077 10.8258 16.8258 10.4845C16.8065 10.4042 16.8 10.2812 16.8 9.70666V5.22666C16.8 4.65214 16.8065 4.52912 16.8258 4.44878C16.9077 4.1075 17.1742 3.84105 17.5155 3.75912ZM5.13274 14.9333L5.22669 14.9333H9.70669L9.80064 14.9333C10.2271 14.9329 10.5947 14.9325 10.9203 15.0107C11.9442 15.2565 12.7435 16.0559 12.9893 17.0797C13.0675 17.4053 13.0672 17.7729 13.0667 18.1994L13.0667 18.2933V22.7733L13.0667 22.8672C13.0672 23.2938 13.0675 23.6613 12.9893 23.987C12.7435 25.0107 11.9442 25.8102 10.9203 26.056C10.5947 26.1341 10.2271 26.1339 9.80064 26.1333H9.70669H5.22669H5.13274C4.7063 26.1339 4.3387 26.1341 4.01304 26.056C2.98923 25.8102 2.18985 25.0107 1.94406 23.987C1.86588 23.6613 1.86623 23.2938 1.86663 22.8672L1.86669 22.7733V18.2933L1.86663 18.1994C1.86623 17.7729 1.86588 17.4053 1.94406 17.0797C2.18985 16.0559 2.98923 15.2565 4.01304 15.0107C4.3387 14.9325 4.7063 14.9329 5.13274 14.9333ZM5.22669 16.8C4.65217 16.8 4.52915 16.8065 4.44881 16.8258C4.10753 16.9077 3.84108 17.1742 3.75915 17.5154C3.73985 17.5958 3.73336 17.7188 3.73336 18.2933V22.7733C3.73336 23.3479 3.73985 23.4709 3.75915 23.5512C3.84108 23.8924 4.10753 24.159 4.44881 24.2409C4.52915 24.2601 4.65217 24.2667 5.22669 24.2667H9.70669C10.2812 24.2667 10.4042 24.2601 10.4846 24.2409C10.8259 24.159 11.0923 23.8924 11.1742 23.5512C11.1935 23.4709 11.2 23.3479 11.2 22.7733V18.2933C11.2 17.7188 11.1935 17.5958 11.1742 17.5154C11.0923 17.1742 10.8259 16.9077 10.4846 16.8258C10.4042 16.8065 10.2812 16.8 9.70669 16.8H5.22669ZM18.2934 14.9333L18.1994 14.9333C17.773 14.9329 17.4054 14.9325 17.0797 15.0107C16.0559 15.2565 15.2565 16.0559 15.0107 17.0797C14.9325 17.4053 14.9329 17.7729 14.9333 18.1994L14.9334 18.2933V22.7733L14.9333 22.8672C14.9329 23.2938 14.9325 23.6613 15.0107 23.987C15.2565 25.0107 16.0559 25.8102 17.0797 26.056C17.4054 26.1341 17.773 26.1339 18.1994 26.1333H18.2934H22.7734H22.8673C23.2938 26.1339 23.6613 26.1341 23.9871 26.056C25.0107 25.8102 25.8102 25.0107 26.0561 23.987C26.1341 23.6613 26.1339 23.2938 26.1334 22.8672V22.7733V18.2933V18.1994C26.1339 17.7729 26.1341 17.4053 26.0561 17.0797C25.8102 16.0559 25.0107 15.2565 23.9871 15.0107C23.6613 14.9325 23.2938 14.9329 22.8673 14.9333L22.7734 14.9333H18.2934ZM17.5155 16.8258C17.5958 16.8065 17.7188 16.8 18.2934 16.8H22.7734C23.3479 16.8 23.4709 16.8065 23.5512 16.8258C23.8924 16.9077 24.159 17.1742 24.2409 17.5154C24.2602 17.5958 24.2667 17.7188 24.2667 18.2933V22.7733C24.2667 23.3479 24.2602 23.4709 24.2409 23.5512C24.159 23.8924 23.8924 24.159 23.5512 24.2409C23.4709 24.2601 23.3479 24.2667 22.7734 24.2667H18.2934C17.7188 24.2667 17.5958 24.2601 17.5155 24.2409C17.1742 24.159 16.9077 23.8924 16.8258 23.5512C16.8065 23.4709 16.8 23.3479 16.8 22.7733V18.2933C16.8 17.7188 16.8065 17.5958 16.8258 17.5154C16.9077 17.1742 17.1742 16.9077 17.5155 16.8258Z" fill="#202721"/>
</svg>
