<svg width="28" height="28" viewBox="0 0 28 28" fill="none" xmlns="http://www.w3.org/2000/svg">
<path d="M24.0691 9.1875C25.2642 11.6846 25.4888 14.5367 24.6993 17.1901C23.9098 19.8434 22.1625 22.1088 19.7967 23.5463C17.4308 24.9839 14.6152 25.491 11.8965 24.9693C9.17771 24.4477 6.7498 22.9344 5.08408 20.7232C3.41836 18.5121 2.63368 15.7609 2.88238 13.0037C3.13107 10.2466 4.3954 7.68019 6.4299 5.80281C8.4644 3.92543 11.1239 2.87101 13.8921 2.84424C16.6603 2.81748 19.3398 3.82028 21.4102 5.65797L24.0352 3.03297C24.1587 2.91162 24.3251 2.84399 24.4982 2.84479C24.6713 2.8456 24.8371 2.91478 24.9595 3.03727C25.0818 3.15976 25.1508 3.32563 25.1514 3.49876C25.152 3.67188 25.0842 3.83823 24.9627 3.96157L14.4627 14.4616C14.4019 14.5233 14.3295 14.5723 14.2496 14.6059C14.1698 14.6395 14.0841 14.657 13.9974 14.6573C13.9108 14.6576 13.825 14.6407 13.7449 14.6077C13.6648 14.5747 13.5921 14.5261 13.5308 14.4648C13.4696 14.4035 13.4211 14.3307 13.3882 14.2506C13.3553 14.1705 13.3385 14.0846 13.3389 13.998C13.3393 13.9114 13.3569 13.8257 13.3906 13.7459C13.4242 13.666 13.4734 13.5937 13.5352 13.533L16.7497 10.3173C15.9122 9.69108 14.886 9.36933 13.8408 9.40528C12.7957 9.44122 11.7941 9.83272 11.0015 10.5151C10.209 11.1974 9.67301 12.1297 9.48215 13.1579C9.29129 14.1862 9.45699 15.2487 9.95185 16.17C10.4467 17.0913 11.2411 17.8162 12.2038 18.2248C13.1664 18.6335 14.2397 18.7014 15.2462 18.4175C16.2527 18.1335 17.1321 17.5146 17.7392 16.663C18.3463 15.8115 18.6447 14.7783 18.585 13.7342C18.5752 13.5602 18.6348 13.3893 18.7509 13.2593C18.867 13.1292 19.03 13.0506 19.2041 13.0408C19.3781 13.0309 19.549 13.0906 19.679 13.2067C19.8091 13.3228 19.8877 13.4858 19.8975 13.6598C19.9763 15.0104 19.5889 16.3471 18.8003 17.4464C18.0117 18.5457 16.8696 19.3409 15.565 19.6991C14.2604 20.0573 12.8724 19.9567 11.633 19.4143C10.3937 18.8718 9.3781 17.9203 8.75615 16.7188C8.13421 15.5174 7.94358 14.1388 8.21614 12.8137C8.48871 11.4885 9.20794 10.2971 10.2536 9.43868C11.2992 8.58023 12.6079 8.10678 13.9607 8.09749C15.3136 8.08821 16.6286 8.54365 17.686 9.38766L20.4794 6.59313C18.644 4.99271 16.2801 4.13019 13.8453 4.17256C11.4105 4.21493 9.07803 5.15918 7.29944 6.8225C5.52085 8.48582 4.42266 10.7499 4.21747 13.1764C4.01229 15.6029 4.71471 18.0192 6.18875 19.9576C7.66278 21.8959 9.80358 23.2184 12.1967 23.6691C14.5898 24.1197 17.065 23.6663 19.143 22.3968C21.2211 21.1273 22.7542 19.132 23.4456 16.797C24.137 14.4621 23.9375 11.9536 22.8856 9.75735C22.8482 9.67964 22.8265 9.59533 22.8217 9.50922C22.8168 9.42311 22.829 9.33689 22.8575 9.25549C22.886 9.17408 22.9302 9.09909 22.9877 9.03478C23.0452 8.97048 23.1147 8.91812 23.1924 8.88071C23.2701 8.84329 23.3545 8.82155 23.4406 8.81671C23.5267 8.81188 23.6129 8.82406 23.6943 8.85255C23.7757 8.88103 23.8507 8.92528 23.915 8.98275C23.9793 9.04022 24.0317 9.1098 24.0691 9.1875Z" fill="#202721" stroke="#202721"/>
</svg>
