<svg width="28" height="28" viewBox="0 0 28 28" fill="none" xmlns="http://www.w3.org/2000/svg">
<path d="M22.2483 5.75166L20.6033 7.39666C22.2833 9.08833 23.3333 11.4217 23.3333 14C23.3333 19.1567 19.1566 23.3333 14 23.3333C8.84331 23.3333 4.66665 19.1567 4.66665 14C4.66665 9.24 8.22498 5.32 12.8333 4.74833V7.105C9.51998 7.665 6.99998 10.535 6.99998 14C6.99998 17.8617 10.1383 21 14 21C17.8616 21 21 17.8617 21 14C21 12.0633 20.2183 10.3133 18.9466 9.05333L17.3016 10.6983C18.1416 11.55 18.6666 12.7167 18.6666 14C18.6666 16.5783 16.5783 18.6667 14 18.6667C11.4216 18.6667 9.33331 16.5783 9.33331 14C9.33331 11.83 10.8266 10.0217 12.8333 9.49666V11.9933C12.1333 12.4017 11.6666 13.1367 11.6666 14C11.6666 15.2833 12.7166 16.3333 14 16.3333C15.2833 16.3333 16.3333 15.2833 16.3333 14C16.3333 13.1367 15.8666 12.39 15.1666 11.9933V2.33333H14C7.55998 2.33333 2.33331 7.56 2.33331 14C2.33331 20.44 7.55998 25.6667 14 25.6667C20.44 25.6667 25.6666 20.44 25.6666 14C25.6666 10.78 24.36 7.86333 22.2483 5.75166Z" fill="#202721"/>
</svg>
