<svg width="244" height="40"  fill="none" xmlns="http://www.w3.org/2000/svg">
<path d="M15.92 33.36C13.0667 33.36 10.6267 32.7733 8.6 31.6C6.57333 30.4267 5.01333 28.76 3.92 26.6C2.85333 24.4133 2.32 21.84 2.32 18.88C2.32 16.6667 2.62667 14.68 3.24 12.92C3.85333 11.1333 4.73333 9.61333 5.88 8.36C7.05333 7.08 8.48 6.10667 10.16 5.44C11.8667 4.77333 13.7867 4.44 15.92 4.44C17.4933 4.44 19 4.65333 20.44 5.08C21.9067 5.50667 23.1733 6.12 24.24 6.92C24.6933 7.21333 24.9867 7.57333 25.12 8C25.28 8.4 25.3067 8.78667 25.2 9.16C25.12 9.53333 24.9467 9.85333 24.68 10.12C24.4133 10.36 24.0667 10.4933 23.64 10.52C23.24 10.5467 22.8 10.4 22.32 10.08C21.44 9.41333 20.4667 8.92 19.4 8.6C18.3333 8.28 17.2133 8.12 16.04 8.12C14.0133 8.12 12.3067 8.54667 10.92 9.4C9.53333 10.2267 8.48 11.44 7.76 13.04C7.04 14.64 6.68 16.5867 6.68 18.88C6.68 21.1733 7.04 23.1333 7.76 24.76C8.48 26.36 9.53333 27.5867 10.92 28.44C12.3067 29.2667 14.0133 29.68 16.04 29.68C17.2133 29.68 18.3333 29.52 19.4 29.2C20.4933 28.8533 21.52 28.3467 22.48 27.68C22.96 27.3867 23.3867 27.2533 23.76 27.28C24.16 27.3067 24.4933 27.44 24.76 27.68C25.0267 27.92 25.2 28.2267 25.28 28.6C25.3867 28.9467 25.3733 29.32 25.24 29.72C25.1333 30.0933 24.88 30.4133 24.48 30.68C23.3867 31.56 22.0933 32.2267 20.6 32.68C19.1067 33.1333 17.5467 33.36 15.92 33.36ZM31.8713 33.28C31.2313 33.28 30.7379 33.1067 30.3913 32.76C30.0446 32.3867 29.8713 31.88 29.8713 31.24V6.56C29.8713 5.89333 30.0446 5.38666 30.3913 5.04C30.7379 4.69333 31.2313 4.52 31.8713 4.52C32.5113 4.52 33.0046 4.69333 33.3513 5.04C33.7246 5.38666 33.9113 5.89333 33.9113 6.56V17.64H33.3513C33.9379 16.1467 34.8579 15.0267 36.1113 14.28C37.3646 13.5067 38.8046 13.12 40.4313 13.12C41.9779 13.12 43.2579 13.4133 44.2713 14C45.3113 14.56 46.0846 15.4267 46.5913 16.6C47.0979 17.7467 47.3513 19.2 47.3513 20.96V31.24C47.3513 31.88 47.1779 32.3867 46.8313 32.76C46.4846 33.1067 45.9913 33.28 45.3513 33.28C44.6846 33.28 44.1779 33.1067 43.8313 32.76C43.4846 32.3867 43.3113 31.88 43.3113 31.24V21.2C43.3113 19.52 42.9779 18.2933 42.3113 17.52C41.6713 16.7467 40.6579 16.36 39.2713 16.36C37.6446 16.36 36.3379 16.8667 35.3513 17.88C34.3913 18.8933 33.9113 20.2533 33.9113 21.96V31.24C33.9113 32.6 33.2313 33.28 31.8713 33.28ZM54.9581 33.28C54.2915 33.28 53.7848 33.1067 53.4381 32.76C53.0915 32.3867 52.9181 31.88 52.9181 31.24V15.24C52.9181 14.5733 53.0915 14.0667 53.4381 13.72C53.7848 13.3733 54.2648 13.2 54.8781 13.2C55.5181 13.2 55.9981 13.3733 56.3181 13.72C56.6648 14.0667 56.8381 14.5733 56.8381 15.24V18.16H56.4381C56.8648 16.56 57.6515 15.3467 58.7981 14.52C59.9448 13.6933 61.4115 13.2133 63.1981 13.08C63.6781 13.0533 64.0515 13.1733 64.3181 13.44C64.6115 13.7067 64.7715 14.12 64.7981 14.68C64.8515 15.24 64.7315 15.6933 64.4381 16.04C64.1448 16.36 63.6915 16.5467 63.0781 16.6L62.3181 16.68C60.5848 16.84 59.2648 17.3867 58.3581 18.32C57.4515 19.2533 56.9981 20.5333 56.9981 22.16V31.24C56.9981 31.88 56.8248 32.3867 56.4781 32.76C56.1581 33.1067 55.6515 33.28 54.9581 33.28ZM76.0466 33.36C74.0732 33.36 72.3666 32.9467 70.9266 32.12C69.5132 31.2933 68.4066 30.12 67.6066 28.6C66.8066 27.08 66.4066 25.2933 66.4066 23.24C66.4066 21.6667 66.6332 20.2667 67.0866 19.04C67.5399 17.8133 68.1799 16.76 69.0066 15.88C69.8599 14.9733 70.8732 14.2933 72.0466 13.84C73.2466 13.36 74.5799 13.12 76.0466 13.12C77.9932 13.12 79.6732 13.5333 81.0866 14.36C82.5266 15.1867 83.6466 16.36 84.4466 17.88C85.2466 19.3733 85.6466 21.16 85.6466 23.24C85.6466 24.7867 85.4199 26.1867 84.9666 27.44C84.5132 28.6933 83.8599 29.76 83.0066 30.64C82.1799 31.52 81.1666 32.2 79.9666 32.68C78.7932 33.1333 77.4866 33.36 76.0466 33.36ZM76.0466 30.24C77.1399 30.24 78.0999 29.9733 78.9266 29.44C79.7532 28.9067 80.3932 28.12 80.8466 27.08C81.3266 26.04 81.5666 24.76 81.5666 23.24C81.5666 20.9467 81.0599 19.2133 80.0466 18.04C79.0332 16.8667 77.6999 16.28 76.0466 16.28C74.9266 16.28 73.9532 16.5467 73.1266 17.08C72.2999 17.5867 71.6466 18.36 71.1666 19.4C70.7132 20.44 70.4866 21.72 70.4866 23.24C70.4866 25.5067 70.9932 27.24 72.0066 28.44C73.0199 29.64 74.3666 30.24 76.0466 30.24ZM92.1838 33.28C91.5438 33.28 91.0504 33.1067 90.7038 32.76C90.3571 32.3867 90.1838 31.88 90.1838 31.24V15.24C90.1838 14.5733 90.3571 14.0667 90.7038 13.72C91.0504 13.3733 91.5304 13.2 92.1438 13.2C92.7838 13.2 93.2638 13.3733 93.5838 13.72C93.9304 14.0667 94.1038 14.5733 94.1038 15.24V18.36L93.6638 17.64C94.2504 16.1467 95.1704 15.0267 96.4238 14.28C97.6771 13.5067 99.1171 13.12 100.744 13.12C102.29 13.12 103.57 13.4133 104.584 14C105.624 14.56 106.397 15.4267 106.904 16.6C107.41 17.7467 107.664 19.2 107.664 20.96V31.24C107.664 31.88 107.49 32.3867 107.144 32.76C106.797 33.1067 106.304 33.28 105.664 33.28C104.997 33.28 104.49 33.1067 104.144 32.76C103.797 32.3867 103.624 31.88 103.624 31.24V21.2C103.624 19.52 103.29 18.2933 102.624 17.52C101.984 16.7467 100.97 16.36 99.5838 16.36C97.9571 16.36 96.6504 16.8667 95.6638 17.88C94.7038 18.8933 94.2238 20.2533 94.2238 21.96V31.24C94.2238 32.6 93.5438 33.28 92.1838 33.28ZM121.711 33.36C119.737 33.36 118.031 32.9467 116.591 32.12C115.177 31.2933 114.071 30.12 113.271 28.6C112.471 27.08 112.071 25.2933 112.071 23.24C112.071 21.6667 112.297 20.2667 112.751 19.04C113.204 17.8133 113.844 16.76 114.671 15.88C115.524 14.9733 116.537 14.2933 117.711 13.84C118.911 13.36 120.244 13.12 121.711 13.12C123.657 13.12 125.337 13.5333 126.751 14.36C128.191 15.1867 129.311 16.36 130.111 17.88C130.911 19.3733 131.311 21.16 131.311 23.24C131.311 24.7867 131.084 26.1867 130.631 27.44C130.177 28.6933 129.524 29.76 128.671 30.64C127.844 31.52 126.831 32.2 125.631 32.68C124.457 33.1333 123.151 33.36 121.711 33.36ZM121.711 30.24C122.804 30.24 123.764 29.9733 124.591 29.44C125.417 28.9067 126.057 28.12 126.511 27.08C126.991 26.04 127.231 24.76 127.231 23.24C127.231 20.9467 126.724 19.2133 125.711 18.04C124.697 16.8667 123.364 16.28 121.711 16.28C120.591 16.28 119.617 16.5467 118.791 17.08C117.964 17.5867 117.311 18.36 116.831 19.4C116.377 20.44 116.151 21.72 116.151 23.24C116.151 25.5067 116.657 27.24 117.671 28.44C118.684 29.64 120.031 30.24 121.711 30.24ZM136.808 33C136.274 33 135.834 32.8933 135.488 32.68C135.168 32.4667 134.941 32.1733 134.808 31.8C134.701 31.4 134.701 30.9733 134.808 30.52C134.941 30.04 135.194 29.5467 135.568 29.04L151.568 6.88V8.28H136.488C135.874 8.28 135.408 8.13333 135.088 7.84C134.768 7.52 134.608 7.08 134.608 6.52C134.608 5.96 134.768 5.53333 135.088 5.24C135.408 4.94667 135.874 4.8 136.488 4.8H153.488C154.021 4.8 154.461 4.90667 154.808 5.12C155.154 5.33333 155.381 5.62667 155.488 6C155.621 6.37333 155.621 6.8 155.488 7.28C155.381 7.76 155.141 8.25333 154.768 8.76L138.728 30.92V29.52H154.408C155.021 29.52 155.488 29.6667 155.808 29.96C156.128 30.2533 156.288 30.68 156.288 31.24C156.288 31.8 156.128 32.24 155.808 32.56C155.488 32.8533 155.021 33 154.408 33H136.808ZM168.25 33.36C166.117 33.36 164.277 32.96 162.73 32.16C161.21 31.3333 160.023 30.1733 159.17 28.68C158.343 27.16 157.93 25.36 157.93 23.28C157.93 21.2533 158.343 19.48 159.17 17.96C159.997 16.44 161.13 15.2533 162.57 14.4C164.01 13.5467 165.65 13.12 167.49 13.12C168.85 13.12 170.063 13.3467 171.13 13.8C172.197 14.2267 173.103 14.8667 173.85 15.72C174.623 16.5467 175.197 17.56 175.57 18.76C175.97 19.96 176.17 21.3067 176.17 22.8C176.17 23.2533 176.037 23.6 175.77 23.84C175.503 24.0533 175.103 24.16 174.57 24.16H161.13V21.68H173.45L172.77 22.24C172.77 20.9067 172.57 19.7733 172.17 18.84C171.797 17.9067 171.223 17.2 170.45 16.72C169.703 16.2133 168.77 15.96 167.65 15.96C166.397 15.96 165.33 16.2533 164.45 16.84C163.597 17.4267 162.943 18.24 162.49 19.28C162.037 20.32 161.81 21.5333 161.81 22.92V23.16C161.81 25.5067 162.357 27.28 163.45 28.48C164.57 29.6533 166.183 30.24 168.29 30.24C169.09 30.24 169.93 30.1333 170.81 29.92C171.717 29.7067 172.57 29.3467 173.37 28.84C173.823 28.5733 174.223 28.4533 174.57 28.48C174.943 28.5067 175.237 28.6267 175.45 28.84C175.69 29.0533 175.837 29.32 175.89 29.64C175.943 29.96 175.89 30.2933 175.73 30.64C175.57 30.96 175.29 31.2533 174.89 31.52C173.983 32.1333 172.93 32.6 171.73 32.92C170.53 33.2133 169.37 33.36 168.25 33.36ZM182.574 33.28C181.934 33.28 181.441 33.1067 181.094 32.76C180.748 32.3867 180.574 31.88 180.574 31.24V15.24C180.574 14.5733 180.748 14.0667 181.094 13.72C181.441 13.3733 181.921 13.2 182.534 13.2C183.174 13.2 183.654 13.3733 183.974 13.72C184.321 14.0667 184.494 14.5733 184.494 15.24V18.36L184.054 17.64C184.641 16.1467 185.561 15.0267 186.814 14.28C188.068 13.5067 189.508 13.12 191.134 13.12C192.681 13.12 193.961 13.4133 194.974 14C196.014 14.56 196.788 15.4267 197.294 16.6C197.801 17.7467 198.054 19.2 198.054 20.96V31.24C198.054 31.88 197.881 32.3867 197.534 32.76C197.188 33.1067 196.694 33.28 196.054 33.28C195.388 33.28 194.881 33.1067 194.534 32.76C194.188 32.3867 194.014 31.88 194.014 31.24V21.2C194.014 19.52 193.681 18.2933 193.014 17.52C192.374 16.7467 191.361 16.36 189.974 16.36C188.348 16.36 187.041 16.8667 186.054 17.88C185.094 18.8933 184.614 20.2533 184.614 21.96V31.24C184.614 32.6 183.934 33.28 182.574 33.28Z" fill="#4F6152"/>
<path d="M220.164 18.7891C226.211 24.4844 232.469 27.8594 240.695 29.125M230.633 13.053C224.383 9.01564 217.914 11.9139 211.937 5.58579C210.545 4.10923 211.354 22.1444 218.835 28.9788C224.305 33.9709 232.75 33.4141 235.598 28.5625C238.445 23.7109 236.883 17.0896 230.633 13.053Z" stroke="#4F6152" stroke-width="2.5" stroke-linecap="round" stroke-linejoin="round"/>
</svg>
