<svg width="28" height="28"  fill="none" xmlns="http://www.w3.org/2000/svg">
<path d="M25.2467 15.1667C25.0783 15.0275 24.8742 14.9384 24.6576 14.9095C24.441 14.8806 24.2207 14.9131 24.0217 15.0033C22.788 15.5679 21.4467 15.8584 20.09 15.855C17.5804 15.852 15.1737 14.8569 13.3947 13.0866C11.6157 11.3164 10.6088 8.91463 10.5934 6.405C10.5987 5.61847 10.6966 4.83531 10.885 4.07167C10.925 3.86813 10.91 3.65761 10.8416 3.4618C10.7731 3.26599 10.6537 3.09196 10.4957 2.95766C10.3376 2.82335 10.1465 2.73362 9.94225 2.6977C9.73795 2.66179 9.52777 2.68099 9.33337 2.75334C7.50442 3.57573 5.91454 4.84956 4.71309 6.45515C3.51164 8.06074 2.73806 9.9454 2.46503 11.9321C2.19199 13.9187 2.42846 15.9422 3.15222 17.8124C3.87598 19.6826 5.06327 21.3381 6.60255 22.6234C8.14184 23.9087 9.98259 24.7816 11.9519 25.1601C13.9212 25.5386 15.9544 25.4103 17.8605 24.7873C19.7666 24.1642 21.483 23.0668 22.8485 21.5982C24.214 20.1296 25.1838 18.338 25.6667 16.3917C25.7255 16.1688 25.717 15.9336 25.6423 15.7155C25.5675 15.4975 25.4299 15.3065 25.2467 15.1667ZM14.1634 22.9717C12.2054 22.9579 10.2996 22.3392 8.70686 21.2004C7.11412 20.0615 5.91231 18.4582 5.266 16.61C4.61969 14.7617 4.56046 12.7589 5.09643 10.8757C5.6324 8.99246 6.73737 7.32095 8.26004 6.09V6.405C8.26312 9.54157 9.51049 12.5488 11.7284 14.7667C13.9463 16.9846 16.9535 18.2319 20.09 18.235C20.9136 18.238 21.735 18.152 22.54 17.9783C21.7349 19.5014 20.5292 20.7758 19.0531 21.664C17.5769 22.5522 15.8862 23.0205 14.1634 23.0183V22.9717Z" fill="#4F6152"/>
</svg>
