<svg width="24" height="24" viewBox="0 0 24 24" fill="none" xmlns="http://www.w3.org/2000/svg">
<g clip-path="url(#clip0_46_61)">
<path d="M16.471 0H4.25786V2.80094H3.52939C2.36186 2.80094 1.41174 3.75106 1.41174 4.91859V17.0428L4.9708 24.0395L8.44939 17.0386V4.91859C8.44939 3.75106 7.49927 2.80094 6.33174 2.80094H5.66963V1.41176H15.5294V8.47059H22.5882V22.5882H6.35292V24H24V7.49365L16.471 0ZM5.51716 19.7675H4.3821L2.82351 16.704V8.448H4.23527V16.9567H5.64704V8.448H7.03621V16.7082L5.51716 19.7675ZM7.03621 4.91859V7.03624H2.82351V4.91859C2.82351 4.53035 3.14116 4.21271 3.52939 4.21271H6.33033C6.71998 4.21271 7.03621 4.53035 7.03621 4.91859ZM16.9412 2.45929L21.5619 7.05882H16.9412V2.45929Z" fill="black"/>
</g>
<defs>
<clipPath id="clip0_46_61">
<rect width="24" height="24" fill="white"/>
</clipPath>
</defs>
</svg>
