<svg width="25" height="25" viewBox="0 0 25 25" fill="none" xmlns="http://www.w3.org/2000/svg">
<path d="M21.4355 1.5625V9.61914H22.3145V1.5625H21.4355ZM20.5566 2.19678L15.9961 3.90625L20.5566 5.61523V2.19678ZM8.10059 5.0293C7.85644 5.0293 7.60254 5.1416 7.35352 5.37109C7.05078 5.6543 6.79199 6.1084 6.67969 6.65527C6.56738 7.20703 6.63086 7.72949 6.80176 8.10547C6.97266 8.48633 7.22168 8.70605 7.51465 8.76465C7.80762 8.82812 8.12012 8.7207 8.42773 8.44238C8.72559 8.15918 8.98926 7.70508 9.10156 7.15332C9.20898 6.60156 9.14551 6.0791 8.97949 5.70312C8.80859 5.32227 8.55957 5.10742 8.2666 5.04395C8.21289 5.03418 8.1543 5.0293 8.10059 5.0293ZM6.22559 8.8623C6.05957 8.9209 5.88867 8.98438 5.70312 9.0625C4.48975 9.8291 3.64258 10.5859 2.78125 11.7822C2.23486 12.5391 2.20801 13.833 2.16699 14.7852L3.18262 15.2344C3.2251 13.877 3.2002 13.3154 3.83057 12.5342C4.31055 11.9385 4.77441 11.3135 5.66406 11.123C5.74219 12.5342 5.53711 14.7217 4.98047 16.9629C5.98145 17.0996 6.81641 16.9287 7.76367 16.6553C10.2393 15.4199 11.3818 16.4697 13.1006 18.8867L14.1016 17.3193C12.9004 15.9082 11.7334 13.6523 8.37891 14.5215C8.62305 13.1885 8.65234 12.3047 8.79883 10.9766C8.82812 10.3906 8.83789 9.80957 8.85254 9.2334C8.41797 9.56543 7.88086 9.74121 7.33887 9.62891C6.875 9.53125 6.49414 9.24316 6.22559 8.8623ZM13.2666 9.21875C12.3779 10.0879 12.1826 10.7324 10.8154 11.0938L9.7168 9.92188C9.69727 10.5469 9.67773 11.1865 9.62402 11.8359C10.0879 12.2607 10.5615 12.6025 10.7324 12.5488C12.2607 12.0898 12.7002 11.5576 13.7305 10.5029L13.2666 9.21875ZM19.9707 10.498V15.1855H15.2832V19.873H10.5957V23.6865C15.5908 23.6963 18.7891 23.7402 23.7793 23.7744V10.498H19.9707ZM6.87012 17.7686C6.20605 17.8906 5.5127 17.9297 4.74902 17.8125C4.21729 19.6436 3.44238 21.4404 2.38037 22.8174L4.2666 23.5645C5.58594 21.7139 6.06445 20.1172 6.87012 17.7686Z" fill="black"/>
</svg>
