<svg width="25" height="22" viewBox="0 0 25 22" fill="none" xmlns="http://www.w3.org/2000/svg">
<path d="M12.5 6.6C11.837 6.6 11.2011 6.36821 10.7322 5.95563C10.2634 5.54305 10 4.98347 10 4.4C10 3.81652 10.2634 3.25694 10.7322 2.84436C11.2011 2.43178 11.837 2.2 12.5 2.2C13.163 2.2 13.7989 2.43178 14.2678 2.84436C14.7366 3.25694 15 3.81652 15 4.4C15 4.98347 14.7366 5.54305 14.2678 5.95563C13.7989 6.36821 13.163 6.6 12.5 6.6ZM12.5 13.2C11.837 13.2 11.2011 12.9682 10.7322 12.5556C10.2634 12.1431 10 11.5835 10 11C10 10.4165 10.2634 9.85694 10.7322 9.44436C11.2011 9.03178 11.837 8.8 12.5 8.8C13.163 8.8 13.7989 9.03178 14.2678 9.44436C14.7366 9.85694 15 10.4165 15 11C15 11.5835 14.7366 12.1431 14.2678 12.5556C13.7989 12.9682 13.163 13.2 12.5 13.2ZM12.5 19.8C11.837 19.8 11.2011 19.5682 10.7322 19.1556C10.2634 18.743 10 18.1835 10 17.6C10 17.0165 10.2634 16.4569 10.7322 16.0444C11.2011 15.6318 11.837 15.4 12.5 15.4C13.163 15.4 13.7989 15.6318 14.2678 16.0444C14.7366 16.4569 15 17.0165 15 17.6C15 18.1835 14.7366 18.743 14.2678 19.1556C13.7989 19.5682 13.163 19.8 12.5 19.8Z" fill="#202721"/>
</svg>
