<svg width="20" height="20" viewBox="0 0 20 20" fill="none" xmlns="http://www.w3.org/2000/svg">
<path d="M8.125 1.875C5.71533 1.875 3.75 3.84033 3.75 6.25C3.75 7.75635 4.51904 9.09424 5.68359 9.88281C3.45459 10.8398 1.875 13.0518 1.875 15.625H3.125C3.125 12.8564 5.35645 10.625 8.125 10.625C9.46533 10.625 10.6641 11.1743 11.5625 12.0312L8.61328 14.9805L8.57422 15.1758L8.14453 17.3828L7.94922 18.3008L8.86719 18.1055L11.0742 17.6758L11.2695 17.6367L17.5781 11.3281C18.3032 10.603 18.3032 9.39697 17.5781 8.67188C17.2144 8.30811 16.731 8.125 16.25 8.125C15.7788 8.125 15.3027 8.30322 14.9414 8.65234L12.4609 11.1328C11.9165 10.6104 11.272 10.1831 10.5664 9.88281C11.731 9.09424 12.5 7.75635 12.5 6.25C12.5 3.84033 10.5347 1.875 8.125 1.875ZM8.125 3.125C9.8584 3.125 11.25 4.5166 11.25 6.25C11.25 7.9834 9.8584 9.375 8.125 9.375C6.3916 9.375 5 7.9834 5 6.25C5 4.5166 6.3916 3.125 8.125 3.125ZM16.25 9.375C16.4087 9.375 16.5747 9.42627 16.6992 9.55078C16.9482 9.79981 16.9482 10.1807 16.6992 10.4297L10.6445 16.4844L9.53125 16.7188L9.76562 15.6055L15.8203 9.55078C15.9448 9.42627 16.0913 9.375 16.25 9.375Z" fill="black"/>
</svg>
